# xmcd
#
# Track frame offsets: 
#        150
#        15997
#        32420
#        44657
#        66862
#        81437
#        100525
#        118157
#        135520
#        150872
#        165920
#        186235
#        201047
#        217080
#        237662
#
# Disc length: 3456 seconds
#
# Revision: 5
# Processed by: cddbd v1.5.2PL0 Copyright (c) Steve Scherf et al.
# Submitted via: ExactAudioCopy v0.99pb5
#
DISCID=c20d7e0f
DTITLE=Tony Bennett - Playin With My Friends: Bennett Sings The Blues
DYEAR=2001
DGENRE=Blues
TTITLE0=Alright, Okay, You Win - with Diana Krall
TTITLE1=Everyday (I Have The Blues) - with Stevie Wonder
TTITLE2=Don't Cry Baby
TTITLE3=Good Morning, Heartache - with Sheryl Crow
TTITLE4=Let The Good Times Roll - with B.B. King
TTITLE5=Evenin' - with Ray Charles
TTITLE6=I Gotta Right To Sing The Blues - with Bonnie Raitt
TTITLE7=Keep The Faith, Baby - with k.d. lang
TTITLE8=Old Count Basie Is Gone (Old Piney Brown Is Gone)
TTITLE9=Blue and Sentimental - with Kay Starr
TTITLE10=New York State Of Mind - with Billy Joel
TTITLE11=Undecided Blues
TTITLE12=Blues In The Night
TTITLE13=Stormy Weather - with Natalie Cole
TTITLE14=Playin' With My Friends - with various duet artists
EXTD=YEAR: 2001
EXTT0=
EXTT1=
EXTT2=
EXTT3=
EXTT4=
EXTT5=
EXTT6=
EXTT7=
EXTT8=
EXTT9=
EXTT10=
EXTT11=
EXTT12=
EXTT13=
EXTT14=
PLAYORDER=
